Coordinates
version=1
nRows=17
nColumns=24
inDegrees=yes

Units are S.I. units (second, meters, Newtons, ...)
Angles are in degrees.

endheader
time	pelvis_tilt	pelvis_list	pelvis_rotation	pelvis_tx	pelvis_ty	pelvis_tz	hip_flexion_r	hip_adduction_r	hip_rotation_r	knee_angle_r	ankle_angle_r	subtalar_angle_r	mtp_angle_r	hip_flexion_l	hip_adduction_l	hip_rotation_l	knee_angle_l	ankle_angle_l	subtalar_angle_l	mtp_angle_l	lumbar_extension	lumbar_bending	lumbar_rotation
      1.19500000	     13.32089124	      0.19189897	     -1.62687006	     -0.67641310	      0.93719967	     -0.01397953	    -30.48624450	      2.69110457	    -12.51344200	     -9.47608647	     25.86380340	     -0.36019153	     18.93300686	     -1.06367210	      4.36094163	    -15.27263661	      9.93237508	      2.97922710	     -4.80748512	     38.85109140	    -20.70087126	     -0.98347102	      4.50316041
      1.20000000	     13.37624610	      0.38887151	     -1.83292834	     -0.67019585	      0.93665812	     -0.01387365	    -30.80348113	      2.31469001	    -12.47602990	     -9.77977784	     25.83163002	     -0.07798296	     19.15321722	     -1.04927543	      4.56859068	    -15.23335311	      9.49044174	      2.65424221	     -5.37585317	     38.86882274	    -20.72082081	     -1.33495207	      4.61195537
      1.20500000	     13.40956394	      0.61740096	     -2.01207791	     -0.66397501	      0.93616137	     -0.01380628	    -31.06697222	      1.91497185	    -12.47354717	    -10.13494409	     25.76261622	      0.17577807	     19.66172021	     -0.99287406	      4.79354944	    -15.07277012	      8.94752403	      2.21441510	     -6.18756526	     39.03286445	    -20.71616720	     -1.71435189	      4.66595378
      1.21000000	     13.44248565	      0.85882896	     -2.23475893	     -0.65772673	      0.93575571	     -0.01370033	    -31.29378207	      1.47213018	    -12.39770308	    -10.55221595	     25.59977098	      0.39979966	     20.27870219	     -0.92973008	      5.02697684	    -14.94524341	      8.32673271	      1.76619123	     -7.05116957	     39.27090354	    -20.70669748	     -2.12085937	      4.76730004
      1.21500000	     13.45350411	      1.14575936	     -2.35558033	     -0.65151833	      0.93537757	     -0.01372080	    -31.47028908	      1.03803387	    -12.40472471	    -11.01613553	     25.42254069	      0.49982595	     21.35206110	     -0.81265735	      5.29156943	    -14.62504715	      7.61151630	      1.16172820	     -8.12811332	     39.74970690	    -20.68250458	     -2.54827005	      4.71203482
      1.22000000	     13.47702996	      1.42996792	     -2.53567811	     -0.64531203	      0.93511162	     -0.01366935	    -31.61976112	      0.56782548	    -12.31398209	    -11.54493996	     25.20990086	      0.61783831	     22.38678864	     -0.68896657	      5.55043329	    -14.40096378	      6.80930012	      0.61699155	     -9.18126618	     40.19555039	    -20.67086819	     -2.99371537	      4.76739333
      1.22500000	     13.47578717	      1.71963708	     -2.71506949	     -0.63908747	      0.93492372	     -0.01359877	    -31.70953015	      0.09817244	    -12.14129295	    -12.11031243	     24.77161688	      0.48096806	     24.35191753	     -0.52483352	      5.80817820	    -14.22905431	      5.94924642	      0.05247927	    -10.16787699	     41.17704031	    -20.62891448	     -3.44804004	      4.81233458
      1.23000000	     13.46572520	      2.05245755	     -2.90318809	     -0.63287005	      0.93478629	     -0.01359448	    -31.69570104	     -0.45079310	    -12.06479298	    -12.88037593	     24.59798599	      0.67519605	     24.62132423	     -0.33311239	      6.11431251	    -14.11004218	      5.02208327	     -0.38608708	    -10.94621248	     41.14830904	    -20.57705940	     -3.94291869	      4.84526267
      1.23500000	     13.40771550	      2.35916614	     -2.91953465	     -0.62675663	      0.93462438	     -0.01383895	    -31.62554496	     -0.88257639	    -12.03909216	    -13.65065108	     24.24998148	      0.74650911	     25.57786949	     -0.07298582	      6.37773577	    -13.43782925	      4.04008556	     -0.85879710	    -12.47683926	     41.20323955	    -20.49864900	     -4.35676388	      4.72416159
      1.24000000	     13.40510350	      2.67980116	     -3.01434783	     -0.62061856	      0.93464995	     -0.01395979	    -31.54928191	     -1.37055545	    -11.90506231	    -14.50755621	     23.68657475	      0.54422648	     28.33906447	      0.13113660	      6.66631207	    -13.11311226	      3.03705349	     -1.31539250	    -13.53661975	     41.80808090	    -20.47375322	     -4.81449326	      4.68251185
      1.24500000	     13.27824404	      2.98412844	     -3.02606835	     -0.61457217	      0.93456615	     -0.01424157	    -31.24510470	     -1.81847949	    -11.80933434	    -15.56791027	     23.29835529	      0.51141657	     28.99821151	      0.50300337	      6.92737047	    -12.59569648	      1.94531538	     -1.56657898	    -14.61827515	     41.74158185	    -20.33048632	     -5.22052778	      4.58693161
      1.25000000	     13.16338996	      3.29556706	     -3.01869044	     -0.60850992	      0.93457764	     -0.01458462	    -30.91285567	     -2.27048161	    -11.69136972	    -16.68634556	     22.71737645	      0.36769224	     30.62291660	      0.84665999	      7.21290395	    -12.07749801	      0.87375477	     -1.88080035	    -15.78642220	     41.65059468	    -20.20238986	     -5.62436443	      4.44238186
      1.25500000	     13.06941377	      3.56611281	     -3.07534161	     -0.60250153	      0.93466540	     -0.01488822	    -30.50034957	     -2.73412395	    -11.46695776	    -17.96688675	     22.06459752	      0.17973433	     32.93398964	      1.15429152	      7.46172321	    -11.63565512	     -0.19348453	     -1.95200103	    -16.73624083	     41.47193287	    -20.09881656	     -5.99887220	      4.43346601
      1.26000000	     12.86490713	      3.79907713	     -3.04738152	     -0.59660324	      0.93465152	     -0.01529883	    -29.87696974	     -3.12936725	    -11.24928967	    -19.43242628	     21.50792486	      0.14122161	     33.63281223	      1.65163095	      7.65788220	    -11.28236626	     -1.41212102	     -1.78757164	    -17.35465119	     41.34984499	    -19.89690020	     -6.30402983	      4.32482397
      1.26500000	     12.74994982	      4.06945734	     -3.01496106	     -0.59065905	      0.93479454	     -0.01580326	    -29.30777138	     -3.56998589	    -11.06573373	    -20.93927316	     20.63559880	     -0.20979914	     36.75535143	      1.95033590	      7.93493930	    -10.73697829	     -2.43397189	     -1.80231369	    -18.28782052	     40.66376584	    -19.78935235	     -6.64156332	      4.20801553
      1.27000000	     12.47553537	      4.25414211	     -2.95682967	     -0.58483682	      0.93475281	     -0.01633327	    -28.44265448	     -3.92721404	    -10.79575967	    -22.67391866	     19.89365186	     -0.31736750	     37.48468031	      2.49156499	      8.09769570	    -10.36541492	     -3.61361945	     -1.42957485	    -18.73869491	     40.46886224	    -19.52254815	     -6.87314777	      4.11105362
      1.27500000	     12.29405893	      4.48282791	     -2.89925997	     -0.57899668	      0.93485820	     -0.01694098	    -27.63443621	     -4.34020772	    -10.57386363	    -24.44310410	     18.84186491	     -0.72071626	     40.77884246	      2.84767954	      8.34600958	     -9.89542175	     -4.62653347	     -1.21498524	    -19.38697188	     39.34611118	    -19.35701578	     -7.14576079	      4.00248708
